<?xml version="1.0" encoding="UTF-8"?>
<svg width="250px" height="60px" viewBox="0 0 250 60" version="1.1" xmlns="http://www.w3.org/2000/svg" xmlns:xlink="http://www.w3.org/1999/xlink">
    <!-- Generator: Sketch 55.1 (78136) - https://sketchapp.com -->
    <title>Brand / Logo / Full Colour</title>
    <desc>Created with Sketch.</desc>
    <defs>
        <polygon id="path-1" points="0.388354701 0.0950854701 136.356303 0.0950854701 136.356303 21.7055556 0.388354701 21.7055556"></polygon>
        <polygon id="path-3" points="0.345619658 0.178151709 201.407051 0.178151709 201.407051 9.61538462 0.345619658 9.61538462"></polygon>
        <polygon id="path-5" points="0 0.422542735 149.773344 0.422542735 149.773344 14.4209402 0 14.4209402"></polygon>
    </defs>
    <g id="Brand-/-Logo-/-Full-Colour" stroke="none" stroke-width="1" fill="none" fill-rule="evenodd">
        <g id="Brand/Logo/Full/Colour">
            <g id="Group-3" transform="translate(9.081197, 0.439103)">
                <mask id="mask-2" fill="white">
                    <use xlink:href="#path-1"></use>
                </mask>
                <g id="Clip-2"></g>
                <path d="M0.388354701,21.7055556 C17.5491453,8.39412393 41.6543803,0.0949786325 68.3728632,0.0949786325 C95.090812,0.0949786325 119.195513,8.39412393 136.356303,21.7055556 L116.791132,21.7055556 C100.80235,11.8139957 80.6223291,5.89412393 58.6613248,5.89412393 C36.7019231,5.89412393 16.5208333,11.8139957 0.533119658,21.7055556 L0.388354701,21.7055556 Z" id="Fill-1" fill="#FBA824" mask="url(#mask-2)"></path>
            </g>
            <g id="Group-6" transform="translate(48.076923, 50.118590)">
                <mask id="mask-4" fill="white">
                    <use xlink:href="#path-3"></use>
                </mask>
                <g id="Clip-5"></g>
                <path d="M0.345619658,6.22195513 C0.975961538,6.92494658 1.86912393,7.92654915 4.28739316,7.92654915 C6.79861111,7.92654915 7.9957265,6.90251068 7.9957265,5.66159188 C7.9957265,2.35016026 1.55395299,4.47996795 1.55395299,2.24919872 C1.55395299,1.31436966 2.60096154,0.929220085 4.0849359,0.929220085 C6.09668803,0.929220085 6.80876068,1.87473291 7.11217949,2.21821581 L7.76228632,1.6920406 C7.25587607,0.979967949 6.05715812,0.178151709 4.10470085,0.178151709 C2.09294872,0.178151709 0.641025641,0.817040598 0.641025641,2.39236111 C0.641025641,5.38648504 7.08279915,3.41639957 7.08279915,5.66159188 C7.08279915,6.81223291 5.52831197,7.13648504 4.39049145,7.13648504 C2.1741453,7.13648504 1.46260684,6.20219017 1.03632479,5.63114316 L0.345619658,6.22195513 Z M14.5405983,6.17120726 C14.204594,6.58787393 13.7483974,7.20699786 12.3755342,7.20699786 C10.9941239,7.20699786 10.1907051,6.25293803 10.1089744,5.25667735 L15.3311966,5.25667735 C15.3733974,3.1519765 13.8904915,2.27110043 12.1928419,2.27110043 C10.5576923,2.27110043 9.28739316,3.37740385 9.28739316,5.06543803 C9.28739316,6.68883547 10.5058761,7.90731838 12.2938034,7.90731838 C14.1047009,7.90731838 14.6319444,7.21768162 15.1805556,6.63808761 L14.5405983,6.17120726 Z M10.1399573,4.55635684 C10.375,3.57986111 11.0544872,2.96928419 12.2644231,2.96928419 C13.5245726,2.96928419 14.2777778,3.68082265 14.4391026,4.55635684 L10.1399573,4.55635684 Z M22.3936966,3.72035256 C21.9871795,3.03071581 21.224359,2.27110043 19.6207265,2.27110043 C17.9732906,2.27110043 16.5737179,3.24492521 16.5737179,5.07398504 C16.5737179,6.66907051 17.7612179,7.90731838 19.6698718,7.90731838 C21.3274573,7.90731838 22.0998932,7.19791667 22.5667735,6.38541667 L21.8563034,5.98851496 C21.2975427,6.95325855 20.5550214,7.20699786 19.6912393,7.20699786 C18.3899573,7.20699786 17.3936966,6.32558761 17.3936966,5.15571581 C17.3936966,3.59962607 18.5219017,2.96928419 19.6207265,2.96928419 C20.9519231,2.96928419 21.4481838,3.7545406 21.6832265,4.12847222 L22.3936966,3.72035256 Z M29.5475427,2.43135684 L28.724359,2.43135684 L28.724359,6.14342949 C28.2473291,6.64983974 27.4962607,7.20699786 26.5918803,7.20699786 C26.0122863,7.20699786 25.0977564,7.03498932 25.1175214,5.77751068 L25.1175214,2.43135684 L24.2943376,2.43135684 L24.2943376,5.93776709 C24.2943376,7.75827991 25.829594,7.90731838 26.4887821,7.90731838 C27.4342949,7.90731838 28.1661325,7.46233974 28.724359,6.97569444 L28.724359,7.74439103 L29.5475427,7.74439103 L29.5475427,2.43135684 Z M31.5806624,7.74439103 L32.403312,7.74439103 L32.403312,4.56436966 C32.4326923,4.41266026 33.275641,3.06223291 34.4433761,3.06223291 C34.7996795,3.06223291 35.0032051,3.12099359 35.1057692,3.13274573 L35.1057692,2.31116453 C34.9529915,2.27964744 34.7996795,2.27110043 34.616453,2.27110043 C33.5512821,2.27110043 32.8787393,3.00026709 32.403312,3.53766026 L32.403312,2.43135684 L31.5806624,2.43135684 L31.5806624,7.74439103 Z M36.5694444,7.74439103 L37.3910256,7.74439103 L37.3910256,2.43189103 L36.5694444,2.43189103 L36.5694444,7.74439103 Z M36.4989316,1.3036859 L37.4417735,1.3036859 L37.4417735,0.360844017 L36.4989316,0.360844017 L36.4989316,1.3036859 Z M39.3744658,7.74439103 L40.1944444,7.74439103 L40.1944444,4.03819444 C40.6730769,3.52911325 41.4257479,2.96928419 42.3301282,2.96928419 C42.9097222,2.96928419 43.8242521,3.14342949 43.8034188,4.40464744 L43.8034188,7.74439103 L44.6260684,7.74439103 L44.6260684,4.2411859 C44.6260684,2.42334402 43.0924145,2.27110043 42.4332265,2.27110043 C41.4861111,2.27110043 40.7548077,2.71607906 40.1944444,3.20592949 L40.1944444,2.43135684 L39.3744658,2.43135684 L39.3744658,7.74439103 Z M52.3386752,2.22889957 C51.6282051,2.22889957 51.4043803,2.41212607 50.9668803,2.76629274 C50.3776709,2.39236111 49.8808761,2.27110043 48.9764957,2.27110043 C47.6538462,2.27110043 46.4353632,2.78926282 46.4353632,4.13969017 C46.4353632,4.74759615 46.7195513,5.08520299 47.1554487,5.48157051 C46.8830128,5.64236111 46.4257479,5.91800214 46.4257479,6.40464744 C46.4257479,6.83253205 46.7094017,6.98477564 47.0037393,7.14503205 C46.3034188,7.38969017 46.1004274,7.73584402 46.1004274,8.12419872 C46.1004274,9.41266026 47.8477564,9.61565171 48.9455128,9.61565171 C50.3675214,9.61565171 52.3680556,9.40144231 52.3680556,7.98050214 C52.3680556,6.84054487 51.3226496,6.6920406 49.321047,6.67227564 C47.4497863,6.64983974 47.2473291,6.58787393 47.2473291,6.23317308 C47.2473291,6.02804487 47.3696581,5.88701923 47.6228632,5.79407051 C48.1111111,5.97729701 48.3755342,6.04727564 49.159188,6.04727564 C51.0384615,6.04727564 51.6367521,4.9019765 51.6367521,4.22996795 C51.6367521,3.66159188 51.4748932,3.40785256 51.3424145,3.20592949 C51.5053419,3.11298077 51.7280983,2.98050214 52.3386752,2.98050214 L52.3386752,2.22889957 Z M48.9342949,8.94577991 C47.9786325,8.94577991 46.8910256,8.75133547 46.8910256,8.13221154 C46.8910256,7.77751068 47.2061966,7.57505342 47.7649573,7.36939103 C48.4161325,7.40090812 49.0566239,7.42067308 49.7077991,7.43990385 C51.2019231,7.49065171 51.5774573,7.59481838 51.5774573,8.06169872 C51.5774573,8.73157051 50.3167735,8.94577991 48.9342949,8.94577991 L48.9342949,8.94577991 Z M49.0251068,2.93830128 C49.7879274,2.93830128 50.8461538,3.12099359 50.8461538,4.15090812 C50.8461538,5.1161859 49.8498932,5.38060897 49.0464744,5.38060897 C48.4668803,5.38060897 47.2259615,5.19738248 47.2259615,4.15090812 C47.2259615,3.16319444 48.2740385,2.93830128 49.0251068,2.93830128 L49.0251068,2.93830128 Z M57.857906,9.45219017 C58.1912393,9.55582265 58.5272436,9.61565171 58.8723291,9.61565171 C59.8274573,9.61565171 60.3969017,9.07772436 60.7307692,8.42761752 L63.8397436,2.43135684 L62.946047,2.43135684 L60.7713675,6.71981838 L58.4962607,2.43135684 L57.6014957,2.43135684 L60.3349359,7.5446047 C59.8482906,8.56009615 59.4417735,8.86351496 58.8098291,8.86351496 C58.5373932,8.86351496 58.1207265,8.82451923 57.857906,8.70112179 L57.857906,9.45219017 Z M68.0363248,7.90731838 C69.8456197,7.90731838 71.0945513,6.87473291 71.0945513,4.99225427 C71.0945513,3.47836538 69.9070513,2.27110043 68.0363248,2.27110043 C66.1666667,2.27110043 64.9695513,3.47836538 64.9695513,4.99225427 C64.9695513,6.87473291 66.2286325,7.90731838 68.0363248,7.90731838 L68.0363248,7.90731838 Z M68.0363248,7.20699786 C66.644765,7.20699786 65.7911325,6.36565171 65.7911325,5.09375 C65.7911325,4.12847222 66.4310897,2.96928419 68.0363248,2.96928419 C69.6426282,2.96928419 70.2729701,4.12847222 70.2729701,5.09375 C70.2729701,6.36565171 69.428953,7.20699786 68.0363248,7.20699786 L68.0363248,7.20699786 Z M77.9433761,2.43135684 L77.1217949,2.43135684 L77.1217949,6.14342949 C76.644765,6.64983974 75.892094,7.20699786 74.9871795,7.20699786 C74.4081197,7.20699786 73.4935897,7.03498932 73.5128205,5.77751068 L73.5128205,2.43135684 L72.6917735,2.43135684 L72.6917735,5.93776709 C72.6917735,7.75827991 74.2248932,7.90731838 74.8846154,7.90731838 C75.8301282,7.90731838 76.5619658,7.46233974 77.1217949,6.97569444 L77.1217949,7.74439103 L77.9433761,7.74439103 L77.9433761,2.43135684 Z M79.9759615,7.74439103 L80.7991453,7.74439103 L80.7991453,4.56436966 C80.8290598,4.41266026 81.6714744,3.06223291 82.8402778,3.06223291 C83.1965812,3.06223291 83.3990385,3.12099359 83.5016026,3.13274573 L83.5016026,2.31116453 C83.3482906,2.27964744 83.1965812,2.27110043 83.0133547,2.27110043 C81.9471154,2.27110043 81.275641,3.00026709 80.7991453,3.53766026 L80.7991453,2.43135684 L79.9759615,2.43135684 L79.9759615,7.74439103 Z M89.9855769,7.74439103 L90.8071581,7.74439103 L90.8071581,3.24492521 L92.9909188,3.24492521 L92.9909188,2.54407051 L90.8071581,2.54407051 L90.8071581,2.19845085 C90.8071581,1.41586538 90.9791667,0.875801282 92.1169872,0.875801282 C92.5336538,0.875801282 92.8899573,0.957532051 93.2553419,1.04994658 L93.2553419,0.318643162 C93.0432692,0.267895299 92.7163462,0.178151709 91.8739316,0.178151709 C90.2590812,0.178151709 89.9855769,1.26415598 89.9855769,2.13915598 L89.9855769,2.54407051 L88.6436966,2.54407051 L88.6436966,3.24492521 L89.9855769,3.24492521 L89.9855769,7.74439103 Z M94.7297009,7.74439103 L95.5512821,7.74439103 L95.5512821,2.43189103 L94.7297009,2.43189103 L94.7297009,7.74439103 Z M94.659188,1.3036859 L95.6020299,1.3036859 L95.6020299,0.360844017 L94.659188,0.360844017 L94.659188,1.3036859 Z M97.5352564,7.74439103 L98.355235,7.74439103 L98.355235,4.03819444 C98.8338675,3.52911325 99.5865385,2.96928419 100.490919,2.96928419 C101.06891,2.96928419 101.985043,3.14342949 101.963675,4.40464744 L101.963675,7.74439103 L102.786859,7.74439103 L102.786859,4.2411859 C102.786859,2.42334402 101.252137,2.27110043 100.594017,2.27110043 C99.6479701,2.27110043 98.9166667,2.71607906 98.355235,3.20592949 L98.355235,2.43135684 L97.5352564,2.43135684 L97.5352564,7.74439103 Z M110.032051,3.98744658 C110.032051,2.62633547 108.650641,2.27110043 107.440705,2.27110043 C105.590812,2.27110043 105.011218,3.03071581 104.707265,3.40785256 L105.326389,3.83306624 C105.590812,3.52911325 106.088675,2.93830128 107.502671,2.93830128 C108.345085,2.93830128 109.208868,3.21394231 109.208868,3.93723291 L109.208868,4.13969017 C107.135684,4.38167735 104.383547,4.45486111 104.383547,6.29246795 C104.383547,7.6653312 105.672009,7.90731838 106.547543,7.90731838 C107.563034,7.90731838 108.42735,7.60336538 109.199252,7.10817308 C109.199252,7.31917735 109.259615,7.58360043 109.300214,7.74439103 L110.121795,7.74439103 C110.071581,7.46233974 110.032051,7.23744658 110.032051,6.92280983 L110.032051,3.98744658 Z M109.208868,6.40464744 C108.680021,6.6920406 107.65438,7.24011752 106.505342,7.24011752 C106.098291,7.24011752 105.16453,7.12793803 105.16453,6.29246795 C105.16453,5.2678953 106.790598,5.04300214 109.208868,4.80902778 L109.208868,6.40464744 Z M112.104167,7.74439103 L112.92735,7.74439103 L112.92735,4.03819444 C113.40438,3.52911325 114.155449,2.96928419 115.061966,2.96928419 C115.639957,2.96928419 116.555556,3.14342949 116.534188,4.40464744 L116.534188,7.74439103 L117.357372,7.74439103 L117.357372,4.2411859 C117.357372,2.42334402 115.823718,2.27110043 115.162927,2.27110043 C114.217415,2.27110043 113.485577,2.71607906 112.92735,3.20592949 L112.92735,2.43135684 L112.104167,2.43135684 L112.104167,7.74439103 Z M124.774573,3.72035256 C124.367521,3.03071581 123.605769,2.27110043 122.000534,2.27110043 C120.354167,2.27110043 118.952991,3.24492521 118.952991,5.07398504 C118.952991,6.66907051 120.139957,7.90731838 122.051282,7.90731838 C123.708333,7.90731838 124.478632,7.19791667 124.94765,6.38541667 L124.235577,5.98851496 C123.676816,6.95325855 122.935897,7.20699786 122.070513,7.20699786 C120.771902,7.20699786 119.774573,6.32558761 119.774573,5.15571581 C119.774573,3.59962607 120.902778,2.96928419 122.000534,2.96928419 C123.331197,2.96928419 123.830662,3.7545406 124.0625,4.12847222 L124.774573,3.72035256 Z M126.645833,7.74439103 L127.465812,7.74439103 L127.465812,2.43189103 L126.645833,2.43189103 L126.645833,7.74439103 Z M126.573718,1.3036859 L127.518162,1.3036859 L127.518162,0.360844017 L126.573718,0.360844017 L126.573718,1.3036859 Z M134.660256,3.98744658 C134.660256,2.62633547 133.280449,2.27110043 132.070513,2.27110043 C130.220085,2.27110043 129.641026,3.03071581 129.337073,3.40785256 L129.957265,3.83306624 C130.220085,3.52911325 130.718483,2.93830128 132.132479,2.93830128 C132.975427,2.93830128 133.839209,3.21394231 133.839209,3.93723291 L133.839209,4.13969017 C131.76656,4.38167735 129.013355,4.45486111 129.013355,6.29246795 C129.013355,7.6653312 130.30235,7.90731838 131.175748,7.90731838 C132.192842,7.90731838 133.056624,7.60336538 133.82906,7.10817308 C133.82906,7.31917735 133.889957,7.58360043 133.930556,7.74439103 L134.753205,7.74439103 C134.702457,7.46233974 134.660256,7.23744658 134.660256,6.92280983 L134.660256,3.98744658 Z M133.839209,6.40464744 C133.311432,6.6920406 132.28312,7.24011752 131.134615,7.24011752 C130.730235,7.24011752 129.794338,7.12793803 129.794338,6.29246795 C129.794338,5.2678953 131.42094,5.04300214 133.839209,4.80902778 L133.839209,6.40464744 Z M136.694979,7.74439103 L137.51656,7.74439103 L137.51656,0.358173077 L136.694979,0.358173077 L136.694979,7.74439103 Z M145.311432,7.74439103 L146.094017,7.74439103 L147.718483,3.43883547 L149.332799,7.74439103 L150.11485,7.74439103 L152.361645,2.43135684 L151.497863,2.43135684 L149.748932,6.77056624 L148.104167,2.43135684 L147.332265,2.43135684 L145.6875,6.76201923 L143.917735,2.43135684 L143.074786,2.43135684 L145.311432,7.74439103 Z M158.600427,6.17120726 C158.264957,6.58787393 157.808761,7.20699786 156.435897,7.20699786 C155.054487,7.20699786 154.251068,6.25293803 154.169338,5.25667735 L159.393162,5.25667735 C159.433761,3.1519765 157.950855,2.27110043 156.254274,2.27110043 C154.616453,2.27110043 153.347222,3.37740385 153.347222,5.06543803 C153.347222,6.68883547 154.566239,7.90731838 156.355235,7.90731838 C158.16453,7.90731838 158.692308,7.21768162 159.241453,6.63808761 L158.600427,6.17120726 Z M154.200321,4.55635684 C154.433761,3.57986111 155.11485,2.96928419 156.324786,2.96928419 C157.584936,2.96928419 158.336004,3.68082265 158.499466,4.55635684 L154.200321,4.55635684 Z M161.028846,7.74439103 L161.850427,7.74439103 L161.850427,0.358173077 L161.028846,0.358173077 L161.028846,7.74439103 Z M163.803419,7.74439103 L164.623932,7.74439103 L164.623932,0.358173077 L163.803419,0.358173077 L163.803419,7.74439103 Z M166.17094,5.40892094 L168.924145,5.40892094 L168.924145,4.65785256 L166.17094,4.65785256 L166.17094,5.40892094 Z M171.331197,4.01575855 C171.818376,3.50934829 172.51015,2.96928419 173.658654,2.96928419 C174.755876,2.96928419 175.936432,3.53766026 175.936432,5.15571581 C175.936432,6.25293803 175.080662,7.20699786 173.637286,7.20699786 C172.754808,7.20699786 171.839744,6.63007479 171.331197,6.08092949 L171.331197,4.01575855 Z M170.508013,0.360844017 L170.508013,6.75080128 C170.508013,6.89182692 170.457799,7.58360043 170.44765,7.74439103 L171.088141,7.74439103 L171.290598,6.91426282 C172.084402,7.56436966 172.633013,7.90731838 173.810363,7.90731838 C175.905449,7.90731838 176.75641,6.34535256 176.75641,5.13595085 C176.75641,3.90304487 175.986645,2.27110043 173.71047,2.27110043 C172.611645,2.27110043 172.043269,2.62633547 171.331197,3.16319444 L171.331197,0.360844017 L170.508013,0.360844017 Z M183.168803,6.17120726 C182.83547,6.58787393 182.376603,7.20699786 181.005342,7.20699786 C179.622329,7.20699786 178.819979,6.25293803 178.738782,5.25667735 L183.961004,5.25667735 C184.001603,3.1519765 182.518697,2.27110043 180.822115,2.27110043 C179.185897,2.27110043 177.917201,3.37740385 177.917201,5.06543803 C177.917201,6.68883547 179.13515,7.90731838 180.923611,7.90731838 C182.732372,7.90731838 183.261218,7.21768162 183.808761,6.63808761 L183.168803,6.17120726 Z M178.769231,4.55635684 C179.003205,3.57986111 179.683761,2.96928419 180.892628,2.96928419 C182.152778,2.96928419 182.905449,3.68082265 183.06891,4.55635684 L178.769231,4.55635684 Z M185.60844,7.74439103 L186.428419,7.74439103 L186.428419,2.43189103 L185.60844,2.43189103 L185.60844,7.74439103 Z M185.537927,1.3036859 L186.480769,1.3036859 L186.480769,0.360844017 L185.537927,0.360844017 L185.537927,1.3036859 Z M188.413462,7.74439103 L189.23344,7.74439103 L189.23344,4.03819444 C189.712073,3.52911325 190.464744,2.96928419 191.369124,2.96928419 C191.94765,2.96928419 192.863248,3.14342949 192.842415,4.40464744 L192.842415,7.74439103 L193.665064,7.74439103 L193.665064,4.2411859 C193.665064,2.42334402 192.131944,2.27110043 191.47062,2.27110043 C190.525107,2.27110043 189.793803,2.71607906 189.23344,3.20592949 L189.23344,2.43135684 L188.413462,2.43135684 L188.413462,7.74439103 Z M201.377671,2.22889957 C200.666667,2.22889957 200.443376,2.41212607 200.007479,2.76629274 C199.416667,2.39236111 198.919872,2.27110043 198.015491,2.27110043 C196.692842,2.27110043 195.474359,2.78926282 195.474359,4.13969017 C195.474359,4.74759615 195.758547,5.08520299 196.194444,5.48157051 C195.922009,5.64236111 195.464744,5.91800214 195.464744,6.40464744 C195.464744,6.83253205 195.748397,6.98477564 196.042735,7.14503205 C195.342415,7.38969017 195.139957,7.73584402 195.139957,8.12419872 C195.139957,9.41266026 196.886752,9.61565171 197.984509,9.61565171 C199.406517,9.61565171 201.407051,9.40144231 201.407051,7.98050214 C201.407051,6.84054487 200.361645,6.6920406 198.360043,6.67227564 C196.488782,6.64983974 196.285791,6.58787393 196.285791,6.23317308 C196.285791,6.02804487 196.408654,5.88701923 196.661859,5.79407051 C197.149573,5.97729701 197.413462,6.04727564 198.198184,6.04727564 C200.077457,6.04727564 200.675748,4.9019765 200.675748,4.22996795 C200.675748,3.66159188 200.513355,3.40785256 200.38141,3.20592949 C200.544872,3.11298077 200.767094,2.98050214 201.377671,2.98050214 L201.377671,2.22889957 Z M197.972756,8.94577991 C197.017628,8.94577991 195.930021,8.75133547 195.930021,8.13221154 C195.930021,7.77751068 196.245192,7.57505342 196.803953,7.36939103 C197.455662,7.40090812 198.09562,7.42067308 198.746795,7.43990385 C200.240919,7.49065171 200.616453,7.59481838 200.616453,8.06169872 C200.616453,8.73157051 199.355769,8.94577991 197.972756,8.94577991 L197.972756,8.94577991 Z M198.064103,2.93830128 C198.826923,2.93830128 199.88515,3.12099359 199.88515,4.15090812 C199.88515,5.1161859 198.888889,5.38060897 198.08547,5.38060897 C197.505876,5.38060897 196.264957,5.19738248 196.264957,4.15090812 C196.264957,3.16319444 197.313034,2.93830128 198.064103,2.93830128 L198.064103,2.93830128 Z" id="Fill-4" fill="#777777" mask="url(#mask-4)"></path>
            </g>
            <path d="M152.750107,43.172062 L155.483547,43.172062 L155.483547,37.1287927 L164.208974,37.1287927 L164.208974,34.7788996 L155.483547,34.7788996 L155.483547,31.5224893 L165.634188,31.5224893 L165.634188,29.1731303 L152.750107,29.1731303 L152.750107,43.172062 Z M175.138996,41.172062 C172.519338,41.172062 169.534295,40.0908654 169.534295,36.1271902 C169.534295,32.7559295 171.942949,31.1768697 175.138996,31.1768697 C178.335577,31.1768697 180.741026,32.7559295 180.741026,36.1271902 C180.741026,40.0908654 177.755983,41.172062 175.138996,41.172062 L175.138996,41.172062 Z M166.799252,36.2788996 C166.799252,39.1880876 168.512927,43.5208868 175.138996,43.5208868 C181.762927,43.5208868 183.477137,39.1880876 183.477137,36.2788996 C183.477137,32.4466346 181.300855,28.8259081 175.138996,28.8259081 C168.975534,28.8259081 166.799252,32.4466346 166.799252,36.2788996 L166.799252,36.2788996 Z M188.58985,35.3948184 L188.58985,31.4455662 L193.867094,31.4455662 C196.101068,31.4455662 197.236218,31.7746261 197.236218,33.4119124 C197.236218,35.0657585 196.101068,35.3948184 193.867094,35.3948184 L188.58985,35.3948184 Z M185.855342,43.172062 L188.58985,43.172062 L188.58985,37.6656517 L192.923184,37.6656517 L196.987821,43.172062 L200.356944,43.172062 L196.061538,37.4744124 C198.12297,37.3590278 199.972329,35.9327457 199.972329,33.3526175 C199.972329,29.9247329 197.583974,29.1731303 194.272009,29.1731303 L185.855342,29.1731303 L185.855342,43.172062 Z M202.948291,43.172062 L211.901282,43.172062 C215.309936,43.172062 217.409295,41.7484509 217.409295,39.109562 C217.409295,37.2805021 216.236218,36.0871261 215.252778,35.6624466 C216.004915,35.1811432 216.870299,34.5256944 216.870299,32.7559295 C216.870299,30.0988782 214.675855,29.1731303 211.383654,29.1731303 L202.948291,29.1731303 L202.948291,43.172062 Z M205.683333,40.9017628 L205.683333,36.973344 L211.63312,36.973344 C213.482479,36.973344 214.675855,37.4354167 214.675855,38.8980235 C214.675855,40.555609 213.366026,40.9017628 211.63312,40.9017628 L205.683333,40.9017628 Z M205.683333,34.7003739 L205.683333,31.4455662 L211.556731,31.4455662 C213.346261,31.4455662 214.136859,31.8889423 214.136859,33.0823184 C214.136859,34.2580662 213.346261,34.7003739 211.556731,34.7003739 L205.683333,34.7003739 Z M220.040171,43.172062 L232.826496,43.172062 L232.826496,40.8232372 L222.775214,40.8232372 L222.775214,37.1287927 L231.227137,37.1287927 L231.227137,34.7788996 L222.775214,34.7788996 L222.775214,31.5224893 L232.596261,31.5224893 L232.596261,29.1731303 L220.040171,29.1731303 L220.040171,43.172062 Z M249.246368,32.5817842 C248.898611,31.6197115 247.857479,28.8259081 241.830769,28.8259081 C240.752778,28.8259081 235.302991,28.8259081 235.302991,33.0230235 C235.302991,35.1619124 237.112286,36.5684295 240.347863,37.010203 L243.699359,37.4744124 C245.700962,37.7249466 246.742094,38.3216346 246.742094,39.2276175 C246.742094,40.4402244 244.893269,41.172062 242.659829,41.172062 C238.961111,41.172062 237.922115,39.6886218 237.420513,38.6672543 L234.783761,39.4947115 C235.11015,40.555609 236.573291,43.5208868 242.580769,43.5208868 C246.318483,43.5208868 249.475534,42.2890491 249.475534,38.9770833 C249.475534,36.6245192 247.628312,35.4124466 244.488355,34.930609 L241.176389,34.4300748 C238.382585,34.0839209 238.038034,33.4482372 238.038034,32.8515491 C238.038034,31.5609509 239.904487,31.0994124 241.754915,31.0994124 C245.085043,31.0994124 246.221795,32.1763355 246.663568,33.4284722 L249.246368,32.5817842 Z" id="Fill-7" fill="#777777"></path>
            <g id="Group-11" transform="translate(0.000000, 28.751068)">
                <mask id="mask-6" fill="white">
                    <use xlink:href="#path-5"></use>
                </mask>
                <g id="Clip-10"></g>
                <path d="M5.52601496,8.85844017 L8.45389957,2.61805556 L11.38125,8.85844017 L5.52601496,8.85844017 Z M-0.00016025641,14.4209402 L2.9079594,14.4209402 L4.38926282,11.2077991 L12.4592415,11.2077991 L13.9223825,14.4209402 L16.8107372,14.4209402 L10.0137286,0.422542735 L6.89353632,0.422542735 L-0.00016025641,14.4209402 Z M18.594391,14.4209402 L31.4768697,14.4209402 L31.4768697,11.9957265 L21.3288996,11.9957265 L21.3288996,0.422542735 L18.594391,0.422542735 L18.594391,14.4209402 Z M34.31875,14.4209402 L47.105609,14.4209402 L47.105609,12.0721154 L37.0537927,12.0721154 L37.0537927,8.37767094 L45.50625,8.37767094 L45.50625,6.02510684 L37.0537927,6.02510684 L37.0537927,2.77136752 L46.8748397,2.77136752 L46.8748397,0.422542735 L34.31875,0.422542735 L34.31875,14.4209402 Z M60.8855235,14.4209402 L64.3903312,14.4209402 L58.0933226,7.18162393 L63.9667201,0.422542735 L60.5003739,0.422542735 L56.4571047,5.21794872 L52.3924679,0.422542735 L48.9079594,0.422542735 L54.7615919,7.18162393 L48.426656,14.4209402 L51.989156,14.4209402 L56.4571047,9.14529915 L60.8855235,14.4209402 Z M70.852938,8.85844017 L73.7808226,2.61805556 L76.7060363,8.85844017 L70.852938,8.85844017 Z M65.3256944,14.4209402 L68.2338141,14.4209402 L69.7167201,11.2077991 L77.7850962,11.2077991 L79.2493056,14.4209402 L82.1376603,14.4209402 L75.3379808,0.422542735 L72.219391,0.422542735 L65.3256944,14.4209402 Z M83.9186432,14.4209402 L86.5383013,14.4209402 L86.5383013,3.94604701 L96.2824252,14.4209402 L98.7861645,14.4209402 L98.7861645,0.422542735 L96.1670406,0.422542735 L96.1670406,10.5325855 L86.8086004,0.422542735 L83.9186432,0.422542735 L83.9186432,14.4209402 Z M104.804861,12.0721154 L104.804861,2.77136752 L107.5789,2.77136752 C112.161165,2.77136752 114.047917,3.94604701 114.047917,7.37606838 C114.047917,10.6479701 112.238622,12.0721154 107.5789,12.0721154 L104.804861,12.0721154 Z M102.071421,14.4209402 L108.926656,14.4209402 C113.548451,14.4209402 116.784028,12.1111111 116.784028,7.33600427 C116.784028,2.29059829 113.240224,0.422542735 108.810203,0.422542735 L102.071421,0.422542735 L102.071421,14.4209402 Z M119.548451,14.4209402 L132.335844,14.4209402 L132.335844,12.0721154 L122.283494,12.0721154 L122.283494,8.37767094 L130.735951,8.37767094 L130.735951,6.02510684 L122.283494,6.02510684 L122.283494,2.77136752 L132.103472,2.77136752 L132.103472,0.422542735 L119.548451,0.422542735 L119.548451,14.4209402 Z M138.006784,6.64369658 L138.006784,2.69444444 L143.283494,2.69444444 C145.517468,2.69444444 146.652618,3.02190171 146.652618,4.6607906 C146.652618,6.31463675 145.517468,6.64369658 143.283494,6.64369658 L138.006784,6.64369658 Z M135.273344,14.4209402 L138.006784,14.4209402 L138.006784,8.91452991 L142.341186,8.91452991 L146.402618,14.4209402 L149.773344,14.4209402 L145.479541,8.72061966 C147.53937,8.60523504 149.388194,7.18162393 149.388194,4.60149573 C149.388194,1.17361111 147.000374,0.422542735 143.688942,0.422542735 L135.273344,0.422542735 L135.273344,14.4209402 Z" id="Fill-9" fill="#333333" mask="url(#mask-6)"></path>
            </g>
        </g>
    </g>
</svg>