<?xml version="1.0" encoding="UTF-8"?><svg id="Layer_2" xmlns="http://www.w3.org/2000/svg" viewBox="0 0 592.39 132.62"><defs><style>.cls-1{fill:#fff;}.cls-2{fill:#f15a25;}.cls-3{fill:#1c808d;}</style></defs><g id="Layer_1-2"><g><g><path class="cls-1" d="M32.59,53.64c0-17.52,12.08-29.31,24.45-29.31,8.32,0,14.16,4.26,17.52,9.31l1.78-7.82h15.64v55.34h-15.64l-1.78-7.82c-3.37,5.05-9.21,9.31-17.52,9.31-12.38,0-24.45-11.78-24.45-29.01Zm41.28-.1c0-7.43-4.75-12.77-11.19-12.77s-11.48,5.64-11.48,12.77,4.75,12.67,11.48,12.67,11.19-5.35,11.19-12.67ZM103.85,0h18.41V81.16h-18.41V0Zm83.26,58.49h-36.33c2.48,6.63,9.01,9.9,16.53,9.9,6.04,0,11.58-2.08,16.63-4.85v14.55c-5.64,3.07-12.08,4.55-19.11,4.55-20.3,0-31.68-12.28-31.68-29.01s12.28-29.31,28.22-29.31c14.45,0,26.24,9.8,26.24,28.22,0,2.18-.2,4.16-.5,5.94Zm-16.93-10.59c-.2-5.54-3.66-9.31-8.91-9.31s-9.41,3.56-10.89,9.31h19.8Zm61.76,4.95l19.01,28.32h-20.79l-9.31-15.94h-.2l-9.31,15.94h-19.8l18.71-27.62-18.51-27.72h20.1l9.21,15.94h.2l9.21-15.94h19.8l-18.32,27.03Zm32.32-11.88h-7.43v-15.15h7.52v-4.55c0-10.3,7.52-20.69,22.77-20.69,4.06,0,7.23,.5,11.09,1.58v15.35c-1.98-.69-4.55-1.19-7.62-1.19-5.35,0-8.22,1.88-8.22,6.24v3.27h14.16v15.15h-13.86v40.2h-18.41V40.96Zm38.01,12.47c0-17.42,13.17-29.11,29.7-29.11s29.5,11.68,29.5,29.11-12.87,29.21-29.5,29.21-29.7-11.88-29.7-29.21Zm40.69,0c0-8.12-5.45-12.67-10.99-12.67s-11.09,4.55-11.09,12.67,5.45,12.77,11.09,12.77,10.99-4.65,10.99-12.77Zm28.97-27.62h14.65l1.78,8.12h.2c3.66-6.53,9.8-8.71,14.85-8.71,1.68,0,2.97,.1,4.26,.49v17.13c-1.58-.4-3.27-.59-4.85-.59-6.44,0-12.47,3.37-12.47,13.46v25.44h-18.41V25.82Zm62.45,7.52c3.27-5.25,10.1-9.01,17.13-9.01,12.77,0,23.86,11.39,23.86,29.21s-11.88,29.11-24.75,29.11c-7.92,0-13.86-4.26-17.33-9.31l-1.68,7.82h-15.64V.14h18.41V33.34Zm-.2,20.2c0,7.43,4.65,12.67,11.19,12.67s11.39-5.45,11.39-12.57-4.75-12.87-11.48-12.87-11.09,5.35-11.09,12.77Zm103.3,4.95h-36.33c2.48,6.63,9.01,9.9,16.53,9.9,6.04,0,11.58-2.08,16.63-4.85v14.55c-5.64,3.07-12.08,4.55-19.11,4.55-20.3,0-31.68-12.28-31.68-29.01s12.28-29.31,28.22-29.31c14.45,0,26.24,9.8,26.24,28.22,0,2.18-.2,4.16-.5,5.94Zm-16.93-10.59c-.2-5.54-3.66-9.31-8.91-9.31s-9.41,3.56-10.89,9.31h19.8Zm67.66-19.4v15.15c-3.96-2.48-10.79-4.55-17.03-4.55-4.26,0-6.63,1.19-6.63,3.27s2.67,3.27,8.51,4.65c9.21,2.18,18.91,5.45,18.91,17.23s-8.91,18.41-24.65,18.41c-8.22,0-15.15-1.98-19.9-4.85v-16.34c4.85,3.56,10.99,6.44,19.11,6.44,4.85,0,7.62-1.29,7.62-3.56,0-2.57-3.47-3.37-10.4-5.35-8.61-2.38-16.83-6.24-16.83-16.43s8.51-18.22,23.46-18.22c6.53,0,13.37,1.58,17.82,4.16Z"/><circle class="cls-2" cx="10.86" cy="34.87" r="10.86" transform="translate(-15.07 9.15) rotate(-27.94)"/><circle class="cls-2" cx="10.86" cy="71.4" r="10.86" transform="translate(-32.19 13.41) rotate(-27.94)"/></g><g><circle class="cls-3" cx="368.84" cy="117.24" r="2.98"/><g><path class="cls-2" d="M264.02,105.54c0-1.12,.86-1.95,1.98-1.95s1.98,.83,1.98,1.95-.86,1.93-1.98,1.93-1.98-.83-1.98-1.93Zm.29,4.97h3.39v15.69h-3.39v-15.69Z"/><path class="cls-2" d="M285.22,115.78v10.43h-3.39v-9.34c0-2.41-1.09-3.56-3.19-3.56-1.95,0-3.45,1.44-3.45,3.42v9.49h-3.39v-15.69h2.62l.37,2.33h.09c.89-1.47,2.59-2.7,4.77-2.7,3.42,0,5.58,2.18,5.58,5.63Z"/><path class="cls-2" d="M299.46,111.47v3.1c-1.12-.89-2.9-1.52-4.71-1.52s-2.76,.69-2.76,1.78c0,1.18,1.18,1.61,3.16,2.18,2.47,.66,5.23,1.49,5.23,4.71,0,2.96-2.33,4.86-6.21,4.86-2.1,0-4.05-.57-5.49-1.67v-3.33c1.29,1.18,3.1,2.13,5.38,2.13,1.93,0,3.02-.8,3.02-1.95,0-1.29-1.35-1.73-3.51-2.39-2.56-.75-4.89-1.67-4.89-4.46s2.24-4.77,5.95-4.77c1.81,0,3.68,.52,4.83,1.32Z"/><path class="cls-2" d="M303.29,105.54c0-1.12,.86-1.95,1.98-1.95s1.98,.83,1.98,1.95-.86,1.93-1.98,1.93-1.98-.83-1.98-1.93Zm.29,4.97h3.39v15.69h-3.39v-15.69Z"/><path class="cls-2" d="M322.53,113.1l.37-2.59h2.82v14.14c0,5.17-3.65,7.96-8.13,7.96-2.13,0-4.25-.72-5.89-1.9v-3.42c1.61,1.41,3.68,2.27,5.66,2.27,2.79,0,4.97-1.78,4.97-4.46v-2.01c-1.06,1.7-2.96,2.82-5.17,2.82-3.68,0-7.04-3.16-7.04-7.88s3.42-7.88,7.1-7.88c2.21,0,4.23,1.15,5.32,2.93Zm-9.03,4.97c0,2.73,1.93,4.8,4.46,4.8s4.46-2.1,4.46-4.89-1.93-4.74-4.46-4.74-4.46,2.1-4.46,4.83Z"/><path class="cls-2" d="M333.23,112.27h.06c.89-1.24,2.5-2.13,4.37-2.13,3.42,0,5.61,1.98,5.61,5.66v10.41h-3.39v-9.37c0-2.41-1.03-3.59-3.16-3.59-1.9,0-3.48,1.12-3.48,3.39v9.57h-3.39v-23.02h3.39v9.08Z"/><path class="cls-2" d="M351.15,110.52h4.34v2.87h-4.34v6.96c0,2.24,1.38,3.16,3.28,3.16,.43,0,.89-.06,1.41-.14v2.9c-.43,.09-1.15,.2-2.1,.2-3.71,0-5.92-2.21-5.92-5.95v-7.13h-2.3v-2.87h2.36v-3.65h3.28v3.65Z"/><path class="cls-2" d="M380.9,118.39c0-5,3.45-8.25,7.04-8.25,2.3,0,4.31,1.15,5.43,3.08l.37-2.7h2.82v15.69h-2.82l-.37-2.7c-1.12,1.93-3.13,3.08-5.43,3.08-3.59,0-7.04-3.25-7.04-8.19Zm12.36-.03c0-2.99-1.95-5.12-4.46-5.12s-4.51,2.13-4.51,5.12,1.95,5.12,4.51,5.12,4.46-2.1,4.46-5.12Z"/><path class="cls-2" d="M399.81,118.36c0-5.03,3.39-8.22,7.07-8.22,2.18,0,4.2,1.09,5.23,2.93v-9.89h3.39v23.02h-2.82l-.4-2.7c-1.09,1.93-3.13,3.08-5.38,3.08-3.68,0-7.1-3.19-7.1-8.22Zm12.36,0c0-2.99-1.95-5.12-4.46-5.12s-4.48,2.13-4.48,5.12,1.93,5.12,4.48,5.12,4.46-2.1,4.46-5.12Z"/><path class="cls-2" d="M417.88,110.52h3.62l3.94,12.02h.09l3.94-12.02h3.51l-5.72,15.69h-3.65l-5.72-15.69Z"/><path class="cls-2" d="M435.05,105.54c0-1.12,.86-1.95,1.98-1.95s1.98,.83,1.98,1.95-.86,1.93-1.98,1.93-1.98-.83-1.98-1.93Zm.29,4.97h3.39v15.69h-3.39v-15.69Z"/><path class="cls-2" d="M450.28,123.48c1.26,0,2.76-.26,4.08-1.24v3.25c-1.21,.69-2.76,1.09-4.46,1.09-4.57,0-8.05-3.51-8.05-8.25s3.48-8.19,8.05-8.19c1.61,0,3.16,.32,4.46,1.12v3.28c-1.32-.92-2.59-1.29-4.11-1.29-2.62,0-4.97,1.95-4.97,5.12s2.36,5.12,5,5.12Z"/><path class="cls-2" d="M471.18,119.4h-11.27c.46,2.76,2.56,4.37,5.32,4.37,1.78,0,3.54-.63,5.12-1.87v3.05c-1.61,1.09-3.45,1.64-5.46,1.64-5.15,0-8.25-3.33-8.25-8.16s3.51-8.28,7.7-8.28c3.79,0,6.93,2.73,6.93,7.93,0,.49-.03,.92-.09,1.32Zm-3.13-2.27c-.09-2.79-1.78-4.17-3.74-4.17-2.16,0-4.02,1.58-4.43,4.17h8.16Z"/><path class="cls-2" d="M497.53,105.54c0-1.12,.86-1.95,1.98-1.95s1.98,.83,1.98,1.95-.86,1.93-1.98,1.93-1.98-.83-1.98-1.93Zm.29,4.97h3.39v15.69h-3.39v-15.69Z"/><path class="cls-2" d="M526.55,115.78v10.43h-3.39v-9.83c0-2.01-.78-3.08-2.64-3.08s-2.9,1.44-2.9,3.02v9.89h-3.39v-9.83c0-2.01-.78-3.08-2.64-3.08s-2.87,1.52-2.87,3.19v9.72h-3.39v-15.69h2.62l.37,2.27h.09c.81-1.47,2.21-2.64,4.25-2.64,2.24,0,3.62,1.04,4.4,2.73,.95-1.64,2.44-2.73,4.51-2.73,3.42,0,5,2.3,5,5.63Z"/><path class="cls-2" d="M530.59,110.52h2.82l.37,2.7c1.12-1.93,3.13-3.08,5.38-3.08,3.71,0,7.13,3.22,7.13,8.22s-3.36,8.22-7.04,8.22c-2.13,0-4.23-1.12-5.26-2.93v8.59h-3.39v-21.73Zm12.27,7.82c0-2.99-1.95-5.09-4.48-5.09s-4.46,2.1-4.46,5.12,1.93,5.12,4.43,5.12,4.51-2.1,4.51-5.15Z"/><path class="cls-2" d="M548.66,118.39c0-5,3.45-8.25,7.04-8.25,2.3,0,4.31,1.15,5.43,3.08l.37-2.7h2.82v15.69h-2.82l-.37-2.7c-1.12,1.93-3.13,3.08-5.43,3.08-3.59,0-7.04-3.25-7.04-8.19Zm12.36-.03c0-2.99-1.95-5.12-4.46-5.12s-4.51,2.13-4.51,5.12,1.95,5.12,4.51,5.12,4.46-2.1,4.46-5.12Z"/><path class="cls-2" d="M575.92,123.48c1.26,0,2.76-.26,4.08-1.24v3.25c-1.21,.69-2.76,1.09-4.46,1.09-4.57,0-8.05-3.51-8.05-8.25s3.48-8.19,8.05-8.19c1.61,0,3.16,.32,4.46,1.12v3.28c-1.32-.92-2.59-1.29-4.11-1.29-2.62,0-4.97,1.95-4.97,5.12s2.36,5.12,5,5.12Z"/><path class="cls-2" d="M587.7,110.52h4.34v2.87h-4.34v6.96c0,2.24,1.38,3.16,3.28,3.16,.43,0,.89-.06,1.41-.14v2.9c-.43,.09-1.15,.2-2.1,.2-3.71,0-5.92-2.21-5.92-5.95v-7.13h-2.3v-2.87h2.36v-3.65h3.28v3.65Z"/></g><circle class="cls-3" cx="483.77" cy="117.24" r="2.98"/></g></g></g></svg>